<svg width="58" height="58" viewBox="0 0 58 58" fill="none" xmlns="http://www.w3.org/2000/svg">
<path d="M56.8042 11.4027V54.1732C56.8042 55.6321 55.6263 56.8041 54.1674 56.8041H3.23499C1.77604 56.8041 0.598145 55.6321 0.598145 54.1732V11.4027H56.8042Z" fill="white"/>
<path d="M56.8042 3.23487V11.4027H0.598145V3.23487C0.598145 1.77592 1.77604 0.598022 3.23499 0.598022H54.1674C55.6263 0.598022 56.8042 1.77592 56.8042 3.23487Z" fill="#38BFF2"/>
<path d="M7.81849 5.99757C7.81849 6.7587 7.20077 7.37654 6.43952 7.37654C5.67827 7.37654 5.06055 6.75882 5.06055 5.99757C5.06055 5.23632 5.67827 4.62415 6.43952 4.62415C7.20077 4.62415 7.81849 5.23643 7.81849 5.99757Z" fill="#D7E9FF"/>
<path d="M13.6491 5.99757C13.6491 6.7587 13.0313 7.37654 12.2701 7.37654C11.5088 7.37654 10.8911 6.75882 10.8911 5.99757C10.8911 5.23632 11.5088 4.62415 12.2701 4.62415C13.0313 4.62415 13.6491 5.23643 13.6491 5.99757Z" fill="#D7E9FF"/>
<path d="M19.4801 5.99757C19.4801 6.7587 18.8624 7.37654 18.1011 7.37654C17.3399 7.37654 16.7222 6.75882 16.7222 5.99757C16.7222 5.23632 17.3399 4.62415 18.1011 4.62415C18.8624 4.62415 19.4801 5.23643 19.4801 5.99757Z" fill="#D7E9FF"/>
<path d="M52.3411 5.99666C52.3411 6.75825 51.7186 7.37337 50.957 7.37337H36.3625C35.601 7.37337 34.9858 6.75825 34.9858 5.99666C34.9858 5.23507 35.601 4.62732 36.3625 4.62732H50.9571C51.7186 4.62732 52.3411 5.23507 52.3411 5.99666Z" fill="#D7E9FF"/>
<path d="M54.1671 0H3.23497C1.45113 0 0 1.45102 0 3.23497V54.1733C0 55.9536 1.45102 57.4021 3.23497 57.4021H54.1671C55.951 57.4021 57.4021 55.9537 57.4021 54.1733C57.4021 47.7732 57.4021 10.8241 57.4021 3.23497C57.4021 1.45102 55.9511 0 54.1671 0ZM1.19591 3.23497C1.19591 2.11066 2.11088 1.19591 3.23497 1.19591H54.1671C55.2912 1.19591 56.2062 2.11066 56.2062 3.23497V10.8047H1.19591V3.23497ZM56.2062 54.1733C56.2062 55.2941 55.2912 56.2062 54.1671 56.2062H3.23497C2.11088 56.2062 1.19591 55.2941 1.19591 54.1733V12.0006H56.2062V54.1733Z" fill="#1A2E35"/>
<path d="M7.79653 34.7131C8.95676 34.7131 9.90039 35.6466 9.90039 36.7937V42.0102C9.90039 43.8293 11.3701 45.3096 13.1763 45.3096C13.5068 45.3096 13.7742 45.0419 13.7742 44.7117C13.7742 44.3815 13.5067 44.1138 13.1763 44.1138C12.0294 44.1138 11.0963 43.1702 11.0963 42.0102V36.7937C11.0963 35.6786 10.5323 34.6919 9.67269 34.0997C10.5188 33.4989 11.073 32.5149 11.073 31.4137V26.1969C11.073 25.0369 12.0061 24.0933 13.1535 24.0933C13.484 24.0933 13.7514 23.8256 13.7514 23.4954C13.7514 23.1651 13.4839 22.8975 13.1535 22.8975C11.3469 22.8975 9.87705 24.3777 9.87705 26.1969V31.4137C9.87705 32.5553 8.93931 33.4989 7.78724 33.5174C7.00152 33.5298 7.01228 34.7131 7.79653 34.7131Z" fill="#1A2E35"/>
<path d="M46.3058 36.7937V42.0102C46.3058 43.1702 45.3727 44.1138 44.2258 44.1138C43.8953 44.1138 43.6279 44.3815 43.6279 44.7117C43.6279 45.0419 43.8954 45.3096 44.2258 45.3096C46.0319 45.3096 47.5017 43.8293 47.5017 42.0102V36.7937C47.5017 35.6466 48.4453 34.7131 49.6055 34.7131C50.3907 34.7131 50.3995 33.5298 49.6148 33.5172C48.4628 33.4989 47.525 32.5552 47.525 31.4136V26.1968C47.525 24.3776 46.0553 22.8973 44.2486 22.8973C43.918 22.8973 43.6507 23.165 43.6507 23.4952C43.6507 23.8255 43.9182 24.0931 44.2486 24.0931C45.396 24.0931 46.3291 25.0368 46.3291 26.1968V31.4136C46.3291 32.5149 46.8833 33.4988 47.7294 34.0996C46.8699 34.6918 46.3058 35.6786 46.3058 36.7937Z" fill="#1A2E35"/>
<path d="M24.6868 44.4985C24.9948 44.6181 25.3407 44.4643 25.4599 44.1563L33.0579 24.4816C33.1771 24.1736 33.0235 23.8273 32.7157 23.7085C32.4091 23.5896 32.0617 23.7429 31.9425 24.0507L24.3445 43.7254C24.2255 44.0334 24.379 44.3797 24.6868 44.4985Z" fill="#1A2E35"/>
<path d="M40.6996 34.1126L33.8064 38.7712C33.5325 38.9563 33.4607 39.328 33.6458 39.6015C33.8312 39.8769 34.2045 39.9457 34.4756 39.7622L42.1004 34.609C42.4531 34.3708 42.4491 33.8549 42.1016 33.6187L34.4767 28.4457C34.2046 28.2606 33.832 28.3315 33.6464 28.6049C33.4607 28.8781 33.5319 29.2501 33.8052 29.4354L40.6996 34.1126Z" fill="#1A2E35"/>
<path d="M15.2992 34.6074L22.8522 39.7606C23.1239 39.9466 23.4971 39.8764 23.6832 39.6035C23.8694 39.3308 23.7988 38.9588 23.526 38.7725L16.6958 34.1125L23.5272 29.4338C23.7993 29.2472 23.8687 28.8749 23.6825 28.6025C23.4957 28.3301 23.1248 28.2606 22.851 28.4468L15.298 33.6198C15.1351 33.7314 15.0381 33.9165 15.0381 34.1139C15.0381 34.3112 15.1363 34.4962 15.2992 34.6074Z" fill="#1A2E35"/>
<path d="M6.43942 4.02612C5.34977 4.02612 4.46289 4.91051 4.46289 5.99744C4.46289 7.08766 5.34988 7.97431 6.43942 7.97431C7.52964 7.97431 8.41663 7.08766 8.41663 5.99744C8.41652 4.91051 7.52953 4.02612 6.43942 4.02612ZM6.43942 6.77852C6.00907 6.77852 5.65869 6.42814 5.65869 5.99756C5.65869 5.56981 6.00907 5.22215 6.43942 5.22215C6.87034 5.22215 7.22072 5.56992 7.22072 5.99756C7.22061 6.42814 6.87034 6.77852 6.43942 6.77852Z" fill="#1A2E35"/>
<path d="M12.2707 4.02612C11.1804 4.02612 10.2935 4.91051 10.2935 5.99744C10.2935 7.08766 11.1804 7.97431 12.2707 7.97431C13.3603 7.97431 14.2472 7.08766 14.2472 5.99744C14.2472 4.91051 13.3602 4.02612 12.2707 4.02612ZM12.2707 6.77852C11.8397 6.77852 11.4894 6.42814 11.4894 5.99756C11.4894 5.56981 11.8397 5.22215 12.2707 5.22215C12.701 5.22215 13.0514 5.56992 13.0514 5.99756C13.0514 6.42814 12.701 6.77852 12.2707 6.77852Z" fill="#1A2E35"/>
<path d="M18.1012 4.02612C17.011 4.02612 16.124 4.91051 16.124 5.99744C16.124 7.08766 17.011 7.97431 18.1012 7.97431C19.1909 7.97431 20.0778 7.08766 20.0778 5.99744C20.0778 4.91051 19.1908 4.02612 18.1012 4.02612ZM18.1012 6.77852C17.6703 6.77852 17.3199 6.42814 17.3199 5.99756C17.3199 5.56981 17.6703 5.22215 18.1012 5.22215C18.5316 5.22215 18.882 5.56992 18.882 5.99756C18.882 6.42814 18.5316 6.77852 18.1012 6.77852Z" fill="#1A2E35"/>
<path d="M50.9571 4.02942H36.3625C35.2736 4.02942 34.3877 4.91199 34.3877 5.99666C34.3877 7.08563 35.2736 7.97149 36.3625 7.97149H50.9571C52.0496 7.97149 52.939 7.08563 52.939 5.99666C52.939 4.91199 52.0496 4.02942 50.9571 4.02942ZM50.9571 6.77558H36.3625C35.9327 6.77558 35.5836 6.42611 35.5836 5.99666C35.5836 5.56427 35.9258 5.22533 36.3625 5.22533H50.9571C51.3904 5.22533 51.7431 5.57129 51.7431 5.99666C51.7431 6.42611 51.3904 6.77558 50.9571 6.77558Z" fill="#1A2E35"/>
</svg>
