<svg width="67" height="67" viewBox="0 0 67 67" fill="none" xmlns="http://www.w3.org/2000/svg">
<g clip-path="url(#clip0_41_5)" filter="url(#filter0_d_41_5)">
<circle cx="33.5" cy="29.5" r="8.5" fill="#38BFF2"/>
<circle cx="45.5" cy="5.5" r="4.5" fill="#38BFF2"/>
<circle cx="9.5" cy="17.5" r="4.5" fill="#38BFF2"/>
<circle cx="21.5" cy="53.5" r="4.5" fill="#38BFF2"/>
<circle cx="57.5" cy="41.5" r="4.5" fill="#38BFF2"/>
<path d="M24.7301 27.1506C23.435 31.9859 26.3148 36.9738 31.1506 38.27C31.9344 38.4797 32.7218 38.5798 33.4973 38.5798C37.5057 38.5798 41.1839 35.9013 42.2698 31.8494C42.8974 29.5073 42.575 27.0609 41.3624 24.9607C40.1498 22.8606 38.1919 21.3583 35.8498 20.7307C33.5062 20.1026 31.0602 20.4255 28.9606 21.6376C26.8604 22.8501 25.3582 24.808 24.7301 27.1506ZM33.5016 22.0153C34.1406 22.0153 34.791 22.0979 35.4367 22.2713H35.4373C37.3683 22.7883 38.9821 24.0269 39.9813 25.7579C40.9811 27.4891 41.2468 29.5063 40.7293 31.4367C39.6611 35.4227 35.5489 37.7996 31.5634 36.7293C27.5768 35.6611 25.2025 31.5494 26.2708 27.5633C27.1657 24.223 30.197 22.0153 33.5016 22.0153ZM17.7277 25.9516C17.7474 25.9532 17.7667 25.9537 17.7859 25.9537C18.2002 25.9537 18.5501 25.6329 18.5801 25.2134C19.5815 11.2302 30.0635 5.25116 40.2752 5.40442C40.3114 6.2227 40.5414 7.02646 40.9628 7.75612C41.6532 8.95214 42.7682 9.80752 44.1022 10.1652C44.5476 10.2846 44.9992 10.3433 45.4482 10.3433C46.3441 10.3433 47.2287 10.1081 48.0254 9.64816C48.948 9.11554 49.665 8.32861 50.11 7.38507C53.8337 8.82365 57.3097 10.9689 60.4464 13.7883C60.599 13.9253 60.7896 13.9928 60.979 13.9928C61.1975 13.9928 61.4151 13.9035 61.5724 13.7286C61.8667 13.4011 61.8402 12.8971 61.5127 12.6028C58.1966 9.62188 54.5126 7.35868 50.5608 5.85014C50.8982 3.31591 49.3122 0.855771 46.778 0.176464C44.0295 -0.559077 41.196 1.07218 40.4512 3.81591C27.5191 3.52794 17.9142 12.1898 16.9894 25.0992C16.958 25.5384 17.2886 25.9199 17.7277 25.9516ZM41.9864 4.24505C42.4136 2.64939 43.8623 1.59465 45.4409 1.59465C45.7466 1.59465 46.0571 1.63406 46.3659 1.71715C48.2699 2.22741 49.4041 4.19158 48.8938 6.09663C48.3835 8.00111 46.4173 9.13582 44.5143 8.62453C42.6104 8.11427 41.4762 6.1501 41.9864 4.24505ZM7.81596 22.5488C7.52753 35.479 16.1895 45.0853 29.0992 46.0105C29.1189 46.012 29.1381 46.0126 29.1574 46.0126C29.5716 46.0126 29.9215 45.6917 29.9516 45.2723C29.9833 44.8331 29.6525 44.4516 29.2135 44.4199C15.227 43.4178 9.24349 32.9287 9.40424 22.7175C10.2224 22.6813 11.0266 22.4583 11.7562 22.0372C12.9522 21.3469 13.8076 20.2319 14.1653 18.8978C14.5224 17.5643 14.3392 16.1705 13.6482 14.9745C13.1156 14.052 12.3287 13.3351 11.3851 12.8899C12.8236 9.16625 14.969 5.69008 17.7884 2.5534C18.0827 2.22591 18.0562 1.72187 17.7287 1.42756C17.4001 1.13222 16.8961 1.16022 16.6028 1.48726C13.6221 4.80347 11.3587 8.4874 9.85031 12.4392C7.31608 12.1021 4.85548 13.6877 4.17663 16.2219C3.44051 18.9698 5.07281 21.8033 7.81596 22.5488ZM5.7172 16.634C6.14437 15.0384 7.5931 13.9836 9.1717 13.9836C9.47741 13.9836 9.78786 14.023 10.0967 14.1061C12.0007 14.6164 13.1348 16.5805 12.6246 18.4856C12.1143 20.3901 10.1475 21.5243 8.2451 21.0135C6.34119 20.5032 5.20694 18.5391 5.7172 16.634ZM49.2722 33.0485C48.8258 33.0111 48.4515 33.348 48.42 33.7867C47.4186 47.77 36.9398 53.7561 26.7249 53.5961C26.6889 52.7775 26.4588 51.9738 26.0373 51.2439C25.3469 50.0478 24.2319 49.1925 22.8978 48.8348C21.5638 48.4777 20.1712 48.6613 18.9746 49.3518C18.052 49.8844 17.335 50.6714 16.89 51.6149C13.1664 50.1763 9.69025 48.0311 6.55357 45.2117C6.22504 44.9163 5.721 44.9443 5.42773 45.2714C5.13342 45.5989 5.15993 46.1029 5.48742 46.3972C8.80352 49.3781 12.4875 51.6413 16.4393 53.1498C16.1019 55.6841 17.6879 58.1442 20.2221 58.8235C20.6685 58.9429 21.117 59.0001 21.5587 59.0001C23.8362 59.0001 25.9256 57.4814 26.5493 55.1831C26.7579 55.1878 26.9682 55.1978 27.1751 55.1978C39.7888 55.1978 49.1005 46.6018 50.0105 33.9008C50.042 33.4617 49.7114 33.0802 49.2722 33.0485ZM25.0135 54.755C24.5033 56.6595 22.536 57.7942 20.6341 57.2829C18.73 56.7727 17.5959 54.8085 18.1062 52.9035C18.5333 51.3078 19.9821 50.2531 21.5607 50.2531C21.8664 50.2531 22.1768 50.2925 22.4857 50.3756C24.3896 50.8857 25.5238 52.85 25.0135 54.755ZM59.184 36.4513C59.4724 23.5211 50.8106 13.9148 37.9008 12.9895C37.4627 12.9563 37.0801 13.289 37.0485 13.7277C37.0168 14.1668 37.3475 14.5484 37.7866 14.5801C51.7696 15.582 57.7537 26.0662 57.5958 36.2751C56.7772 36.3112 55.9737 36.5416 55.2438 36.963C54.0478 37.6533 53.1924 38.7683 52.8347 40.1024C52.4776 41.4359 52.6608 42.8297 53.3518 44.0257C53.8844 44.9483 54.6713 45.6651 55.6149 46.1103C54.1764 49.834 52.0309 53.3101 49.2116 56.4468C48.9173 56.7743 48.9438 57.2783 49.2713 57.5726C49.4239 57.7097 49.6145 57.7772 49.8039 57.7772C50.0224 57.7772 50.24 57.6879 50.3973 57.513C53.377 54.1979 55.6397 50.5153 57.1483 46.5651C57.3758 46.5955 57.6028 46.6112 57.8279 46.6112C60.1108 46.6112 62.2053 45.0856 62.8236 42.7783C63.5595 40.0303 61.9272 37.1968 59.184 36.4513ZM61.2828 42.3661C60.7725 44.2706 58.8057 45.4053 56.9033 44.894C54.9993 44.3837 53.8651 42.4196 54.3754 40.5145C54.8026 38.9188 56.2513 37.8641 57.8299 37.8641C58.1356 37.8641 58.446 37.9035 58.7549 37.9866C60.6588 38.4967 61.793 40.461 61.2828 42.3661Z" fill="#1A2E35"/>
</g>
<defs>
<filter id="filter0_d_41_5" x="0" y="0" width="67" height="67" filterUnits="userSpaceOnUse" color-interpolation-filters="sRGB">
<feFlood flood-opacity="0" result="BackgroundImageFix"/>
<feColorMatrix in="SourceAlpha" type="matrix" values="0 0 0 0 0 0 0 0 0 0 0 0 0 0 0 0 0 0 127 0" result="hardAlpha"/>
<feOffset dy="4"/>
<feGaussianBlur stdDeviation="2"/>
<feComposite in2="hardAlpha" operator="out"/>
<feColorMatrix type="matrix" values="0 0 0 0 0 0 0 0 0 0 0 0 0 0 0 0 0 0 0.25 0"/>
<feBlend mode="normal" in2="BackgroundImageFix" result="effect1_dropShadow_41_5"/>
<feBlend mode="normal" in="SourceGraphic" in2="effect1_dropShadow_41_5" result="shape"/>
</filter>
<clipPath id="clip0_41_5">
<rect width="59" height="59" fill="white" transform="translate(4)"/>
</clipPath>
</defs>
</svg>
